<?xml version="1.0" encoding="UTF-8" standalone="no"?>
<!-- Created with Inkscape (http://www.inkscape.org/) -->

<svg
   width="170mm"
   height="50mm"
   viewBox="0 0 170 50"
   version="1.1"
   id="svg915"
   inkscape:version="1.1.2 (0a00cf5339, 2022-02-04)"
   sodipodi:docname="logo-dark.svg"
   xmlns:inkscape="http://www.inkscape.org/namespaces/inkscape"
   xmlns:sodipodi="http://sodipodi.sourceforge.net/DTD/sodipodi-0.dtd"
   xmlns="http://www.w3.org/2000/svg"
   xmlns:svg="http://www.w3.org/2000/svg">
  <sodipodi:namedview
     id="namedview917"
     pagecolor="#ffffff"
     bordercolor="#666666"
     borderopacity="1.0"
     inkscape:pageshadow="2"
     inkscape:pageopacity="0.0"
     inkscape:pagecheckerboard="0"
     inkscape:document-units="mm"
     showgrid="false"
     inkscape:zoom="1.6025078"
     inkscape:cx="324.49141"
     inkscape:cy="94.851335"
     inkscape:window-width="1920"
     inkscape:window-height="1025"
     inkscape:window-x="0"
     inkscape:window-y="0"
     inkscape:window-maximized="1"
     inkscape:current-layer="layer1"
     inkscape:snap-global="false" />
  <defs
     id="defs912" />
  <g
     inkscape:label="Capa 1"
     inkscape:groupmode="layer"
     id="layer1">
    <path
       id="rect3067"
       style="fill:#17c6aa;fill-opacity:1;stroke:#17c6aa;stroke-width:1.22544"
       d="M 175.0332 54.947266 C 169.40352 54.947266 165.09406 56.545085 162.10547 59.742188 C 159.11687 62.939289 157.62305 67.456734 157.62305 73.294922 L 157.62305 111.66016 C 157.62305 117.49834 159.11687 122.01579 162.10547 125.21289 C 165.09406 128.40999 169.40352 130.00977 175.0332 130.00977 C 180.66288 130.00977 184.97234 128.40999 187.96094 125.21289 C 190.94953 122.01579 192.44336 117.49834 192.44336 111.66016 L 192.44336 73.294922 C 192.44336 67.456734 190.94953 62.939289 187.96094 59.742188 C 184.97234 56.545085 180.66288 54.947266 175.0332 54.947266 z M 216.31836 54.947266 C 210.82768 54.947266 206.62222 56.511071 203.70312 59.638672 C 200.85354 62.766273 199.42773 67.179723 199.42773 72.878906 L 199.42773 112.07812 C 199.42773 117.77731 200.85354 122.19076 203.70312 125.31836 C 206.62222 128.44596 210.82768 130.00977 216.31836 130.00977 C 221.80904 130.00977 225.97854 128.44596 228.82812 125.31836 C 231.74722 122.19076 233.20703 117.77731 233.20703 112.07812 L 233.20703 101.75586 L 222.36523 101.75586 L 222.36523 112.91211 C 222.36523 117.36025 220.45348 119.58398 216.63086 119.58398 C 212.80824 119.58398 210.89648 117.36025 210.89648 112.91211 L 210.89648 72.148438 C 210.89648 67.630792 212.80824 65.371094 216.63086 65.371094 C 220.45348 65.371094 222.36523 67.630792 222.36523 72.148438 L 222.36523 80.59375 L 233.20703 80.59375 L 233.20703 72.878906 C 233.20703 67.179723 231.74722 62.766273 228.82812 59.638672 C 225.97854 56.511071 221.80904 54.947266 216.31836 54.947266 z M 294.19531 54.947266 C 288.56563 54.947266 284.25617 56.545085 281.26758 59.742188 C 278.27898 62.939289 276.78516 67.456734 276.78516 73.294922 L 276.78516 111.66016 C 276.78516 117.49834 278.27898 122.01579 281.26758 125.21289 C 284.25617 128.40999 288.56563 130.00977 294.19531 130.00977 C 299.82499 130.00977 304.13445 128.40999 307.12305 125.21289 C 310.11164 122.01579 311.60547 117.49834 311.60547 111.66016 L 311.60547 73.294922 C 311.60547 67.456734 310.11164 62.939289 307.12305 59.742188 C 304.13445 56.545085 299.82499 54.947266 294.19531 54.947266 z M 416.79688 54.947266 C 411.2367 54.947266 406.99722 56.545085 404.07812 59.742188 C 401.15904 62.869787 399.69922 67.317252 399.69922 73.085938 C 399.69922 77.325573 400.63711 81.149078 402.51367 84.554688 C 404.39023 87.890794 407.69182 91.644319 412.41797 95.814453 C 416.17109 99.081058 418.74277 101.89474 420.13281 104.25781 C 421.52286 106.55139 422.21875 109.22706 422.21875 112.28516 C 422.21875 114.85674 421.69683 116.73448 420.6543 117.91602 C 419.68127 119.02805 418.22145 119.58398 416.27539 119.58398 C 412.31376 119.58398 410.33398 117.22029 410.33398 112.49414 L 410.33398 107.49023 L 399.49023 107.49023 L 399.49023 111.66016 C 399.49023 117.56785 400.91604 122.12126 403.76562 125.31836 C 406.61522 128.44596 410.82068 130.00977 416.38086 130.00977 C 422.01054 130.00977 426.28404 128.40999 429.20312 125.21289 C 432.19172 122.01579 433.68555 117.42836 433.68555 111.45117 C 433.68555 106.86402 432.78167 102.8685 430.97461 99.462891 C 429.16755 96.057281 425.86792 92.269744 421.07227 88.099609 C 417.31914 84.833004 414.7115 82.053339 413.25195 79.759766 C 411.86191 77.466192 411.16797 74.998507 411.16797 72.357422 C 411.16797 67.700772 413.07777 65.371094 416.90039 65.371094 C 418.77695 65.371094 420.20275 65.962993 421.17578 67.144531 C 422.14881 68.256567 422.63477 70.064326 422.63477 72.566406 L 422.63477 76.318359 L 433.47656 76.318359 L 433.47656 73.294922 C 433.47656 67.387232 432.05272 62.869787 429.20312 59.742188 C 426.42305 56.545085 422.28754 54.947266 416.79688 54.947266 z M 456.41406 54.947266 C 450.92339 54.947266 446.71792 56.511071 443.79883 59.638672 C 440.94924 62.766273 439.52344 67.179723 439.52344 72.878906 L 439.52344 112.07812 C 439.52344 117.77731 440.94924 122.19076 443.79883 125.31836 C 446.71792 128.44596 450.92339 130.00977 456.41406 130.00977 C 461.90474 130.00977 466.07424 128.44596 468.92383 125.31836 C 471.84292 122.19076 473.30273 117.77731 473.30273 112.07812 L 473.30273 101.75586 L 462.45898 101.75586 L 462.45898 112.91211 C 462.45898 117.36025 460.54919 119.58398 456.72656 119.58398 C 452.90394 119.58398 450.99219 117.36025 450.99219 112.91211 L 450.99219 72.148438 C 450.99219 67.630792 452.90394 65.371094 456.72656 65.371094 C 460.54919 65.371094 462.45898 67.630792 462.45898 72.148438 L 462.45898 80.59375 L 473.30273 80.59375 L 473.30273 72.878906 C 473.30273 67.179723 471.84292 62.766273 468.92383 59.638672 C 466.07424 56.511071 461.90474 54.947266 456.41406 54.947266 z M 577.34766 54.947266 C 571.78748 54.947266 567.548 56.545085 564.62891 59.742188 C 561.70981 62.869787 560.25 67.317252 560.25 73.085938 C 560.25 77.325573 561.18789 81.149078 563.06445 84.554688 C 564.94101 87.890794 568.2426 91.644319 572.96875 95.814453 C 576.72187 99.081058 579.29355 101.89474 580.68359 104.25781 C 582.07364 106.55139 582.76758 109.22706 582.76758 112.28516 C 582.76758 114.85674 582.24761 116.73448 581.20508 117.91602 C 580.23205 119.02805 578.77223 119.58398 576.82617 119.58398 C 572.86454 119.58398 570.88281 117.22029 570.88281 112.49414 L 570.88281 107.49023 L 560.04102 107.49023 L 560.04102 111.66016 C 560.04102 117.56785 561.46681 122.12126 564.31641 125.31836 C 567.166 128.44596 571.36951 130.00977 576.92969 130.00977 C 582.55937 130.00977 586.83481 128.40999 589.75391 125.21289 C 592.7425 122.01579 594.23633 117.42836 594.23633 111.45117 C 594.23633 106.86402 593.33245 102.8685 591.52539 99.462891 C 589.71833 96.057281 586.41675 92.269744 581.62109 88.099609 C 577.86797 84.833004 575.26228 82.053339 573.80273 79.759766 C 572.41269 77.466192 571.7168 74.998507 571.7168 72.357422 C 571.7168 67.700772 573.62855 65.371094 577.45117 65.371094 C 579.32773 65.371094 580.75353 65.962993 581.72656 67.144531 C 582.69959 68.256567 583.18555 70.064326 583.18555 72.566406 L 583.18555 76.318359 L 594.02734 76.318359 L 594.02734 73.294922 C 594.02734 67.387232 592.6035 62.869787 589.75391 59.742188 C 586.97382 56.545085 582.83833 54.947266 577.34766 54.947266 z M 616.12891 54.947266 C 610.56873 54.947266 606.32925 56.545085 603.41016 59.742188 C 600.49106 62.869787 599.03125 67.317252 599.03125 73.085938 C 599.03125 77.325573 599.9711 81.149078 601.84766 84.554688 C 603.72422 87.890794 607.02385 91.644319 611.75 95.814453 C 615.50312 99.081058 618.0748 101.89474 619.46484 104.25781 C 620.85489 106.55139 621.55078 109.22706 621.55078 112.28516 C 621.55078 114.85674 621.02886 116.73448 619.98633 117.91602 C 619.0133 119.02805 617.55348 119.58398 615.60742 119.58398 C 611.64579 119.58398 609.66602 117.22029 609.66602 112.49414 L 609.66602 107.49023 L 598.82422 107.49023 L 598.82422 111.66016 C 598.82422 117.56785 600.24806 122.12126 603.09766 125.31836 C 605.94725 128.44596 610.15271 130.00977 615.71289 130.00977 C 621.34257 130.00977 625.61606 128.40999 628.53516 125.21289 C 631.52375 122.01579 633.01758 117.42836 633.01758 111.45117 C 633.01758 106.86402 632.11565 102.8685 630.30859 99.462891 C 628.50154 96.057281 625.19995 92.269744 620.4043 88.099609 C 616.65118 84.833004 614.04353 82.053339 612.58398 79.759766 C 611.19394 77.466192 610.5 74.998507 610.5 72.357422 C 610.5 67.700772 612.41175 65.371094 616.23438 65.371094 C 618.11093 65.371094 619.53478 65.962993 620.50781 67.144531 C 621.48084 68.256567 621.9668 70.064326 621.9668 72.566406 L 621.9668 76.318359 L 632.81055 76.318359 L 632.81055 73.294922 C 632.81055 67.387232 631.38475 62.869787 628.53516 59.742188 C 625.75507 56.545085 621.61958 54.947266 616.12891 54.947266 z M 237.06445 55.988281 L 237.06445 66.414062 L 249.05273 66.414062 L 249.05273 128.9668 L 260.52148 128.9668 L 260.52148 66.414062 L 272.50977 66.414062 L 272.50977 55.988281 L 237.06445 55.988281 z M 319.32031 55.988281 L 319.32031 128.9668 L 330.78711 128.9668 L 330.78711 99.253906 L 336.20898 99.253906 C 341.90817 99.253906 346.18361 97.726067 349.0332 94.667969 C 351.88279 91.60987 353.30664 87.12644 353.30664 81.21875 L 353.30664 74.025391 C 353.30664 68.117701 351.88279 63.63427 349.0332 60.576172 C 346.18361 57.518073 341.90817 55.988281 336.20898 55.988281 L 319.32031 55.988281 z M 359.14453 55.988281 L 359.14453 111.66016 C 359.14453 117.56785 360.60434 122.12126 363.52344 125.31836 C 366.44253 128.44596 370.68201 130.00977 376.24219 130.00977 C 381.80237 130.00977 386.04184 128.44596 388.96094 125.31836 C 391.88003 122.12126 393.33984 117.56785 393.33984 111.66016 L 393.33984 55.988281 L 382.28906 55.988281 L 382.28906 112.49414 C 382.28906 114.99622 381.76714 116.80398 380.72461 117.91602 C 379.75158 119.02805 378.32773 119.58398 376.45117 119.58398 C 374.57461 119.58398 373.1148 119.02805 372.07227 117.91602 C 371.09923 116.80398 370.61328 114.99622 370.61328 112.49414 L 370.61328 55.988281 L 359.14453 55.988281 z M 480.18359 55.988281 L 480.18359 128.9668 L 491.65039 128.9668 L 491.65039 96.126953 L 503.95312 96.126953 L 503.95312 128.9668 L 515.41992 128.9668 L 515.41992 55.988281 L 503.95312 55.988281 L 503.95312 85.701172 L 491.65039 85.701172 L 491.65039 55.988281 L 480.18359 55.988281 z M 523.96875 55.988281 L 523.96875 128.9668 L 555.24609 128.9668 L 555.24609 118.54102 L 535.4375 118.54102 L 535.4375 96.126953 L 551.17969 96.126953 L 551.17969 85.701172 L 535.4375 85.701172 L 535.4375 66.414062 L 555.24609 66.414062 L 555.24609 55.988281 L 523.96875 55.988281 z M 175.0332 65.371094 C 178.99483 65.371094 180.97656 67.770752 180.97656 72.566406 L 180.97656 112.39062 C 180.97656 117.18628 178.99483 119.58398 175.0332 119.58398 C 171.07158 119.58398 169.0918 117.18628 169.0918 112.39062 L 169.0918 72.566406 C 169.0918 67.770752 171.07158 65.371094 175.0332 65.371094 z M 294.19531 65.371094 C 298.15694 65.371094 300.13672 67.770752 300.13672 72.566406 L 300.13672 112.39062 C 300.13672 117.18628 298.15694 119.58398 294.19531 119.58398 C 290.23369 119.58398 288.25195 117.18628 288.25195 112.39062 L 288.25195 72.566406 C 288.25195 67.770752 290.23369 65.371094 294.19531 65.371094 z M 330.78711 66.414062 L 336.20898 66.414062 C 338.08554 66.414063 339.47538 66.935982 340.37891 67.978516 C 341.35194 69.021049 341.83789 70.792841 341.83789 73.294922 L 341.83789 81.949219 C 341.83789 84.451299 341.35194 86.223091 340.37891 87.265625 C 339.47538 88.308159 338.08554 88.828125 336.20898 88.828125 L 330.78711 88.828125 L 330.78711 66.414062 z "
       transform="scale(0.26458333)" />
    <path
       id="path18341"
       style="fill:#17c6aa;fill-opacity:1;stroke:none;stroke-width:0.115454;stroke-dasharray:0.115454, 0.115454"
       d="m 7.7865495,9.6890954 c -1.9907101,0 -3.5932822,1.6025736 -3.5932822,3.5932836 v 23.475172 c 0,1.99071 1.6025721,3.593283 3.5932822,3.593283 H 31.261542 c 1.99071,0 3.593511,-1.602573 3.593511,-3.593283 V 13.282379 c 0,-1.99071 -1.602801,-3.5932836 -3.593511,-3.5932836 z M 25.440021,14.286064 c 0.948681,0 1.897336,0.363443 2.624265,1.090368 l 0.962039,0.962261 c 1.453854,1.453859 1.453854,3.79468 0,5.248535 L 15.895302,34.718206 c -1.453859,1.453854 -3.79468,1.453854 -5.248535,0 L 9.6847293,33.755945 c -1.4538541,-1.453859 -1.3578871,-3.704665 0,-5.248524 1.3486637,-1.533374 4.4260337,-0.786395 8.6530027,-5.3668 3.454054,-3.742878 3.327868,-6.556606 4.47802,-7.764189 0.726929,-0.726925 1.675588,-1.090368 2.624269,-1.090368 z"
       sodipodi:nodetypes="ssssssssssccssccsscs" />
  </g>
</svg>
